<svg width="165" height="115" viewBox="0 0 165 115" fill="none" xmlns="http://www.w3.org/2000/svg">
<path d="M33.5894 32.9541C31.9554 33.7711 30.4326 38.3081 29.8755 40.4744L36.9438 43.5436L37.891 41.9333L37.6069 64.1936L39.5014 65.5197L40.2592 65.1408C42.1536 64.3072 43.764 65.6776 44.3323 66.467H54.7578V40.4744L57.7753 38.4319L55.9648 34.9967C54.4422 33.4741 52.0808 33.341 51.0905 33.4648C50.0228 35.7394 48.1195 35.6466 46.9589 35.6466C42.0196 35.6466 39.3612 33.1088 38.6494 31.84C37.0896 31.2458 34.6262 32.3351 33.5894 32.9541Z" fill="#D869C0"/>
<path d="M109.781 48.1011C109.61 45.2464 111.878 42.8369 114.738 42.8369H134.66C138.526 42.8369 141.66 45.9709 141.66 49.8369V55.1838C141.66 59.0498 138.526 62.1838 134.66 62.1838H113.185V56.2805C113.185 55.7326 113.629 55.2884 114.177 55.2884C114.725 55.2884 115.17 54.8442 115.17 54.2962V50.7355C115.17 50.0171 114.587 49.4347 113.869 49.4347H111.198C110.447 49.4347 109.827 48.8503 109.781 48.1011Z" fill="#FFBD59"/>
<path d="M129.568 15.0956H125.761V13.2561C125.761 10.0198 128.385 7.39624 131.621 7.39624C132.682 8.18328 132.605 11.2887 132.434 12.743C129.73 12.743 129.397 14.3114 129.568 15.0956Z" fill="black"/>
<path d="M38.979 19.9784V10.0657H54.6841V15.022H44.234C44.234 17.7593 42.015 19.9784 39.2776 19.9784H38.979Z" fill="black"/>
<path d="M94.2058 55.5195H113.178V71.5508H88.1348V64.2466H94.2058V55.5195Z" fill="#FFFD8C"/>
<path d="M64.5417 89.332C64.5417 87.3984 66.1092 85.8309 68.0428 85.831L86.9789 85.8311C88.9125 85.8311 90.4799 87.3985 90.4799 89.3321C90.4799 91.2656 88.9124 92.833 86.9789 92.833H68.0428C66.1092 92.833 64.5417 91.2656 64.5417 89.332Z" fill="#FFFD8C"/>
<path d="M63.3525 59.8982L68.1423 59.8982V75.2866C68.1423 77.292 66.5165 78.9178 64.5111 78.9178C62.5056 78.9178 60.8799 77.292 60.8799 75.2866V64.0481L62.2459 63.1074L63.3525 59.8982Z" fill="#FFFD8C"/>
<path d="M149.117 113.823V77.5134M149.117 113.823H135.319M149.117 113.823H164.873M37.7569 113.823H35.2963M37.7569 113.823H38.6902M37.7569 113.823V74.9214M100.718 15.1689H37.7569V31.7392M100.718 15.1689V49.2909M100.718 15.1689H114.775M100.718 49.2909H86.8702C86.318 49.2909 85.8702 49.7386 85.8702 50.2909V53.8596M100.718 49.2909H109.749M113.139 55.2873H114.138C114.69 55.2873 115.138 54.8395 115.138 54.2873V50.2909C115.138 49.7386 114.69 49.2909 114.138 49.2909H109.749M113.139 55.2873H94.1879M113.139 55.2873V62.1743M113.139 71.563H88.0118M113.139 71.563V69.513M113.139 71.563H137.655M88.0118 71.563V64.5673M88.0118 71.563H84.2299C81.4685 71.563 79.2299 73.8016 79.2299 76.563V77.5134M88.0118 64.5673H93.1879C93.7402 64.5673 94.1879 64.1196 94.1879 63.5673V55.2873M88.0118 64.5673H85.8708C85.3186 64.5673 84.8708 64.1196 84.8708 63.5673V54.859C84.8708 54.307 85.3183 53.8596 85.8702 53.8596V53.8596M85.8702 53.8596H88.3821M94.1879 55.2873V54.8596C94.1879 54.3073 93.7402 53.8596 93.1879 53.8596H90.6796M86.7073 57.9417H92.3149M86.7073 61.4953H92.3149M88.3821 53.8596V52.7252C88.3821 52.0908 88.8964 51.5765 89.5308 51.5765V51.5765C90.1653 51.5765 90.6796 52.0908 90.6796 52.7252V53.8596M88.3821 53.8596V53.8596C88.3821 54.4243 88.8399 54.882 89.4046 54.882H89.6571C90.2218 54.882 90.6796 54.4243 90.6796 53.8596V53.8596M109.749 49.2909V49.2909C109.749 45.687 112.67 42.7655 116.274 42.7655H134.807C138.673 42.7655 141.807 45.8995 141.807 49.7655V55.1743C141.807 59.0403 138.673 62.1743 134.807 62.1743H129.351M113.139 62.1743H122.881M113.139 62.1743V69.513M122.881 62.1743V69.513H113.139M122.881 62.1743H129.351M137.655 71.563V71.563C137.655 70.4308 136.737 69.513 135.605 69.513H129.351V62.1743M137.655 71.563H149.117M149.117 71.563V15.1689H132.477M149.117 71.563V77.5134M79.2299 77.5134H106.015M79.2299 77.5134V85.8208M149.117 77.5134H135.319M79.2299 113.823H106.015M79.2299 113.823H59.4855M79.2299 113.823V93.0984M106.015 113.823V77.5134M106.015 113.823H116.775M106.015 77.5134H116.775M116.775 77.5134V113.823M116.775 77.5134H135.319M116.775 113.823H135.319M135.319 113.823V77.5134M114.775 15.1689H118.142M114.775 15.1689V12.7557M114.775 15.1689V16.0288C114.775 17.269 113.77 18.2743 112.53 18.2743V18.2743M132.477 15.1689V10.787C132.477 5.8989 128.514 1.93628 123.626 1.93628V1.93628C118.738 1.93628 114.775 5.8989 114.775 10.787V12.7557M132.477 15.1689H125.673M131.847 7.35389V7.35389C128.437 7.35389 125.673 10.1179 125.673 13.5274V15.1689M125.673 15.1689H120.901M77.7357 93.0984H68.1035C66.0938 93.0984 64.4646 91.4693 64.4646 89.4596V89.4596M77.7357 93.0984V104.871M77.7357 93.0984H79.2299M77.7357 104.871L72.0634 109.797M77.7357 104.871V109.313M77.7357 104.871L83.5685 110.276M72.0634 109.797H69.0388C68.0494 109.797 67.2473 110.599 67.2473 111.588V111.588C67.2473 112.577 68.0494 113.38 69.0388 113.38H69.6553C70.9852 113.38 72.0634 112.301 72.0634 110.972V109.797ZM77.7357 109.313V109.313C76.9377 109.313 76.2908 109.96 76.2908 110.757V111.91C76.2908 112.722 76.9488 113.38 77.7604 113.38V113.38C78.572 113.38 79.2299 112.722 79.2299 111.91V110.807C79.2299 109.982 78.5609 109.313 77.7357 109.313V109.313ZM83.5685 110.276V111.052C83.5685 112.337 84.6107 113.38 85.8963 113.38H86.6722C87.5293 113.38 88.2241 112.685 88.2241 111.828V111.828C88.2241 110.971 87.5293 110.276 86.6722 110.276H83.5685ZM64.4646 89.4596V89.4596C64.4646 87.4499 66.0938 85.8208 68.1035 85.8208H79.2299M64.4646 89.4596V78.7572M64.4646 78.7572V78.7572C62.3958 78.7572 60.7188 77.0801 60.7188 75.0113V64.0945M64.4646 78.7572V78.7572C66.4951 78.7572 68.1411 77.1111 68.1411 75.0807V59.9118M38.8673 31.7392C39.5735 33.0855 41.9924 35.778 46.018 35.778C46.4103 35.778 46.7735 35.7625 47.1095 35.7338M38.8673 31.7392V19.9537M38.8673 31.7392H38.7308C35.4221 31.7392 32.4548 33.776 31.2655 36.8635L29.8442 40.5531M50.9838 33.3282L47.4085 31.2095V29.6299C47.4085 28.6334 49.1959 27.8325 50.1418 28.1459C50.7814 28.3578 51.5261 28.4948 52.3743 28.4948C53.6323 28.4948 54.7579 27.8327 54.7579 25.5154C54.7579 24.1899 54.7579 19.04 54.7579 14.5906M50.9838 33.3282C54.3025 35.0232 54.8826 38.8511 54.7579 40.5531M50.9838 33.3282V33.3282C53.2683 33.0866 55.4733 34.245 56.5706 36.2632L57.7803 38.4883M50.9838 33.3282C51.0038 34.0652 50.2218 35.4675 47.1095 35.7338M38.8673 19.9537V9.88962H54.7579C54.7579 11.1541 54.7579 12.8167 54.7579 14.5906M38.8673 19.9537H39.1321C42.0941 19.9537 44.4952 17.5525 44.4952 14.5906V14.5906H54.7579M40.2543 71.6385L41.9019 70.8319C42.4848 70.5465 43.1883 70.7157 43.5777 71.2349V71.2349C43.895 71.6579 43.943 72.234 43.6023 72.6383C42.7264 73.6775 40.9869 74.9748 38.4042 74.9748C38.1879 74.9748 37.9719 74.9564 37.7569 74.9214M40.2543 71.6385L38.2431 68.7023C37.5382 67.6733 37.9369 66.2572 39.075 65.747L39.4636 65.5729M40.2543 71.6385L43.332 70.0927C44.699 69.4061 45.1871 67.6977 44.3891 66.3927V66.3927M39.4636 65.5729L40.3308 65.1687C41.7979 64.4849 43.5447 65.0117 44.3891 66.3927V66.3927M39.4636 65.5729C39.1726 65.1139 38.5806 64.538 37.7569 64.3168M34.7627 65.1094C35.2604 64.7333 35.7303 64.495 36.1674 64.3617M36.1674 64.3617L31.9156 55.2873L36.9476 43.4585M36.1674 64.3617C36.7618 64.1803 37.2957 64.193 37.7569 64.3168M36.9476 43.4585L29.8442 40.5531M36.9476 43.4585L37.7569 41.7288M29.8442 40.5531L24.1686 55.2873L30.8562 68.8172C31.3179 69.6273 32.0877 70.7572 33.0491 71.8283M33.621 32.9599L35.0296 33.6494C37.9688 35.0883 39.2129 38.617 37.826 41.5811L37.7569 41.7288M44.3891 66.3927H54.7579M54.7579 66.3927V109.797M54.7579 66.3927V46.5142M54.7579 40.5531L57.7803 38.4883M54.7579 40.5531V46.5142M45.8716 110.956V77.495C45.8716 75.8382 47.215 74.495 48.8719 74.495V74.495M33.0491 71.8283V77.4929C33.0491 78.734 34.0552 79.7401 35.2963 79.7401V79.7401V113.823M33.0491 71.8283C34.3604 73.2891 36.0281 74.6403 37.7569 74.9214M35.2963 113.823H23.418M38.6902 113.823V113.823C38.6902 111.599 40.4929 109.797 42.7167 109.797H42.9942C45.2179 109.797 47.0206 111.599 47.0206 113.823V113.823M38.6902 113.823H47.0206M47.0206 113.823H50.9082M50.9082 113.823V113.823C50.9082 111.599 52.7109 109.797 54.9347 109.797H55.459C57.6827 109.797 59.4855 111.599 59.4855 113.823V113.823M50.9082 113.823H59.4855M66.6935 54.882L57.7803 38.4883M66.6935 54.882H67.2948C68.6838 54.882 69.8097 56.008 69.8097 57.3969V57.3969C69.8097 58.7859 68.6838 59.9118 67.2948 59.9118H63.1772L62.3994 62.7077C62.1412 63.6357 61.2031 64.2005 60.262 63.9945V63.9945C59.3185 63.788 58.7019 62.8788 58.859 61.9258L59.9052 55.5786M66.6935 54.882L59.9052 55.5786M54.7579 46.5142L57.7803 51.8367M59.9052 55.5786L57.7803 51.8367M57.7803 51.8367L60.7188 50.3168M47.1095 35.7338V40.5531M37.7569 41.7288V64.3168M79.2299 85.8208H82.2921M82.2921 85.8208H86.9398C88.9494 85.8208 90.5786 87.4499 90.5786 89.4596V89.4596C90.5786 91.4693 88.9494 93.0984 86.9398 93.0984H82.2921M82.2921 85.8208V85.3562C82.2921 83.147 84.0829 81.3562 86.2921 81.3562H95.3148C97.5239 81.3562 99.3148 83.147 99.3148 85.3562V90.0194C99.3148 92.2285 97.5239 94.0194 95.3148 94.0194H83.213C82.7044 94.0194 82.2921 93.6071 82.2921 93.0984V93.0984M79.2299 93.0984H82.2921M20.5013 113.823H8.28648M5.46053 113.823H0.12793M118.142 15.1689V12.7557M118.142 15.1689H120.901M120.901 15.1689V14.1588M114.775 12.7557H112.53M112.53 18.2743V12.7557M112.53 18.2743H109.981M112.53 12.7557H109.981M109.981 12.7557V12.7557C108.573 12.7557 107.432 13.8969 107.432 15.3046V15.7255C107.432 17.1332 108.573 18.2743 109.981 18.2743V18.2743M109.981 12.7557V18.2743M131.847 12.7557V12.7557C130.528 12.7557 129.459 13.8245 129.459 15.143V15.8871C129.459 17.2055 130.528 18.2743 131.847 18.2743V18.2743M131.847 12.7557V18.2743M131.847 12.7557H134.324M131.847 18.2743H134.324M134.324 18.2743V18.2743C135.693 18.2743 136.802 17.165 136.802 15.7967V15.2334C136.802 13.865 135.693 12.7557 134.324 12.7557V12.7557M134.324 18.2743V12.7557M54.9732 19.7654V19.7654C54.9732 19.3844 54.6643 19.0755 54.2832 19.0755H52.7548C52.3737 19.0755 52.0648 19.3844 52.0648 19.7654V19.7654C52.0648 20.1465 52.3737 20.4554 52.7548 20.4554H54.2832C54.6643 20.4554 54.9732 20.1465 54.9732 19.7654ZM47.1095 19.7654V19.7654C47.1095 20.1465 47.4184 20.4554 47.7995 20.4554H49.328C49.709 20.4554 50.0179 20.1465 50.0179 19.7654V19.7654C50.0179 19.3844 49.709 19.0755 49.328 19.0755H47.7995C47.4184 19.0755 47.1095 19.3844 47.1095 19.7654ZM50.9838 24.8741V24.7767C50.9838 24.4226 51.2709 24.1355 51.6251 24.1355V24.1355C51.9793 24.1355 52.2664 24.4226 52.2664 24.7767V24.8741C52.2664 25.2283 51.9793 25.5154 51.6251 25.5154V25.5154C51.2709 25.5154 50.9838 25.2283 50.9838 24.8741ZM87.2921 97.3409H94.3148C97.0762 97.3409 99.3148 99.5795 99.3148 102.341V104.797C99.3148 107.558 97.0762 109.797 94.3148 109.797H87.2921C84.5306 109.797 82.2921 107.558 82.2921 104.797V102.341C82.2921 99.5795 84.5306 97.3409 87.2921 97.3409ZM87.0778 103.42V103.42C87.0778 103.947 86.6501 104.375 86.1225 104.375H85.7963C85.2687 104.375 84.841 103.947 84.841 103.42V103.42C84.841 102.892 85.2687 102.464 85.7963 102.464H86.1225C86.6501 102.464 87.0778 102.892 87.0778 103.42Z" stroke="black" stroke-width="2" stroke-linejoin="round"/>
</svg>
